<?xml version="1.0" encoding="utf-8"?>
<!DOCTYPE svg PUBLIC "-//W3C//DTD SVG 1.1//EN" "http://www.w3.org/Graphics/SVG/1.1/DTD/svg11.dtd">
<svg xmlns="http://www.w3.org/2000/svg" xmlns:xlink="http://www.w3.org/1999/xlink" version="1.1" id="Layer_1" x="0" y="0" viewBox="0 0 386 83" xml:space="preserve" enable-background="new 0 0 386 83">
	<style type="text/css">
	.st0{fill:#FFFFFF;}
	</style>
	<path class="st0" d="M170.6 16.4h-31.9l-7.9 56.1h31.9c6 0 9.4-2.3 10.1-7l5.9-42C179.3 18.7 176.6 16.4 170.6 16.4zM155.5 58.5h-4.4l4-28.1h4.4L155.5 58.5z"/>
	<path class="st0" d="M37.8 23.4l-5.2 36.8h-3.9l5.2-36.8H18l-6 42.9c-0.6 4.1 1.8 6.1 7.1 6.1h19.9c5.3 0 8.2-2 8.8-6.1l6-42.9H37.8z"/>
	<path class="st0" d="M112.3 60.3h-3.9l3.4-24.6h3.9l-0.3 2.2h15.9l1.2-8.3c0.6-4.1-1.8-6.2-7.1-6.2h-19.9c-5.3 0-8.2 2.1-8.8 6.2l-5.2 36.7c-0.6 4.1 1.8 6.1 7.1 6.1h27.8l4.3-30.6h-16L112.3 60.3z"/>
	<path class="st0" d="M90.6 25.1c-1.5-1.1-3.2-1.6-5-1.6 -5.3 0-9.4 1-12.3 3.1l0.4-3.1h-16l-6.9 49h16L72 35.7h3.9l-5.2 36.7h15.9l6-42.8C92.9 27.8 92.3 26.3 90.6 25.1z"/>
	<polygon class="st0" points="338 72.4 358.6 72.4 360.8 56.8 340.2 56.8 "/>
	<polygon class="st0" points="346.9 9.3 340.8 52.8 361.3 52.8 367.5 9.3 "/>
	<path class="st0" d="M216.8 44.4c3.2-1.3 5-3.1 5.3-5.4l2.2-15.5c0.7-4.7-2-7.1-8.1-7.1h-31.9l-7.9 56.1h18.3l3-21h4.4l-3 21h18.3l3.2-22.7C220.9 47.5 219.6 45.7 216.8 44.4zM204 37.4h-4.4l1-7h4.4L204 37.4z"/>
	<path class="st0" d="M336 51.4l3.9-28c0.7-4.7-2-7.1-8.1-7.1h-22.8c-6 0-9.4 2.4-10.1 7.1l-5.9 42c-0.7 4.6 2 7 8.1 7H324c6 0 9.4-2.3 10-7l1.5-10.5h-18.3l-0.5 3.5h-4.4l1-7.1H336zM316.3 30.4h4.4l-1 7h-4.4L316.3 30.4z"/>
	<polygon class="st0" points="222 72.4 240.3 72.4 248.1 16.4 229.9 16.4 "/>
	<polygon class="st0" points="279.2 16.4 270.3 47.9 270.1 16.4 251.9 16.4 253.1 72.4 280.4 72.4 297.5 16.4 "/>
	<path class="st0" d="M371.6 71.1c-0.6 0-1.3-0.1-1.8-0.3 -0.6-0.2-1.1-0.5-1.6-1 -0.5-0.4-0.8-0.9-1.1-1.5 -0.3-0.6-0.4-1.2-0.4-2 0-0.7 0.1-1.4 0.4-2 0.3-0.6 0.6-1.1 1.1-1.5 0.4-0.4 1-0.7 1.6-1 0.6-0.2 1.2-0.3 1.8-0.3 0.6 0 1.3 0.1 1.8 0.3 0.6 0.2 1.1 0.5 1.6 1 0.4 0.4 0.8 0.9 1.1 1.5 0.3 0.6 0.4 1.2 0.4 2 0 0.7-0.1 1.4-0.4 2 -0.3 0.6-0.6 1.1-1.1 1.5 -0.4 0.4-1 0.7-1.6 1C372.8 71 372.2 71.1 371.6 71.1zM375.2 66.4c0-0.5-0.1-1.1-0.3-1.5 -0.2-0.5-0.4-0.9-0.8-1.2 -0.3-0.3-0.7-0.6-1.2-0.8 -0.4-0.2-0.9-0.3-1.4-0.3 -0.5 0-1 0.1-1.4 0.3 -0.4 0.2-0.8 0.4-1.1 0.8 -0.3 0.3-0.6 0.7-0.8 1.2 -0.2 0.5-0.3 1-0.3 1.5 0 0.5 0.1 1.1 0.3 1.5 0.2 0.5 0.4 0.9 0.8 1.2 0.3 0.3 0.7 0.6 1.1 0.8 0.4 0.2 0.9 0.3 1.4 0.3 0.5 0 1-0.1 1.4-0.3 0.4-0.2 0.8-0.4 1.2-0.8 0.3-0.3 0.6-0.7 0.8-1.2C375.1 67.4 375.2 66.9 375.2 66.4zM370.7 69h-1v-5.3h2c0.7 0 1.2 0.1 1.5 0.4 0.4 0.2 0.5 0.6 0.5 1.2 0 0.2 0 0.5-0.1 0.6 -0.1 0.2-0.2 0.3-0.3 0.4 -0.1 0.1-0.3 0.2-0.4 0.3 -0.2 0.1-0.3 0.1-0.5 0.1l1.3 2.3h-1.2l-1.2-2.3h-0.7V69zM370.7 65.9h0.9c0.4 0 0.7-0.1 0.8-0.2 0.2-0.1 0.2-0.3 0.2-0.6 0-0.2-0.1-0.4-0.3-0.5 -0.2-0.1-0.4-0.1-0.8-0.1h-0.9V65.9z"/>
</svg>
